<svg width="20" height="20" viewBox="0 0 20 20" fill="none" xmlns="http://www.w3.org/2000/svg">
<path d="M20 3.15789V5.26316H16.8421V8.42105H14.7368V5.26316H11.5789V3.15789H14.7368V0H16.8421V3.15789H20ZM11.0526 10.5263C11.9242 10.5263 12.6316 9.81895 12.6316 8.94737C12.6316 8.07579 11.9242 7.36842 11.0526 7.36842C10.1811 7.36842 9.47368 8.07579 9.47368 8.94737C9.47368 9.81895 10.1811 10.5263 11.0526 10.5263ZM14.7368 13.9305L14.1968 13.3305C13.3611 12.3989 11.9021 12.3989 11.0642 13.3305L10.3747 14.0989L5.26316 8.42105L2.10526 11.9295V5.26316H9.47368V3.15789H2.10526C0.942105 3.15789 0 4.1 0 5.26316V17.8947C0 19.0579 0.942105 20 2.10526 20H14.7368C15.9 20 16.8421 19.0579 16.8421 17.8947V10.5263H14.7368V13.9305Z"/>
</svg>
