<svg width="22" height="16" viewBox="0 0 22 16" fill="none" xmlns="http://www.w3.org/2000/svg">
<path fill-rule="evenodd" clip-rule="evenodd" d="M18.0701 2.43367C18.4482 2.06755 18.4482 1.47396 18.0701 1.10784C17.692 0.741724 17.0789 0.741724 16.7008 1.10784L12.5751 5.10246C11.9985 4.77256 11.3259 4.58325 10.6076 4.58325C8.46863 4.58325 6.73462 6.26218 6.73462 8.33325C6.73462 9.02869 6.93014 9.67997 7.27086 10.2383L3.1452 14.2328C2.76708 14.5989 2.76708 15.1926 3.1452 15.5587C3.52333 15.9248 4.13639 15.9248 4.51452 15.5587L8.64017 11.5641C9.21674 11.894 9.88939 12.0833 10.6076 12.0833C12.7466 12.0833 14.4806 10.4043 14.4806 8.33325C14.4806 7.63781 14.2852 6.98653 13.9444 6.42828L18.0701 2.43367ZM11.1092 6.52172C10.9492 6.48038 10.7811 6.45825 10.6076 6.45825C9.5381 6.45825 8.67113 7.29769 8.67113 8.33325C8.67113 8.50125 8.69398 8.664 8.73668 8.81888L11.1092 6.52172ZM10.1061 10.1448L12.4786 7.84763C12.5213 8.0025 12.5441 8.16525 12.5441 8.33325C12.5441 9.36881 11.6772 10.2083 10.6076 10.2083C10.4341 10.2083 10.266 10.1861 10.1061 10.1448ZM14.2532 1.60266C13.1529 1.13371 11.9317 0.833252 10.6076 0.833252C7.84573 0.833252 5.53125 2.14071 3.82804 3.55758C2.11865 4.97959 0.932431 6.58725 0.405992 7.36744C0.00822397 7.95685 0.00822397 8.70966 0.405992 9.29906C0.850314 9.95756 1.76464 11.2055 3.06682 12.4338L4.43624 11.1079C3.30265 10.0422 2.48538 8.94553 2.06766 8.33325C2.56184 7.60894 3.61522 6.20661 5.09001 4.97976C6.61264 3.71311 8.49272 2.70825 10.6076 2.70825C11.355 2.70825 12.0731 2.83374 12.7565 3.05192L14.2532 1.60266ZM10.6076 13.9583C9.86034 13.9583 9.14228 13.8327 8.45892 13.6146L6.96212 15.0638C8.06245 15.5328 9.28365 15.8333 10.6076 15.8333C13.3696 15.8333 15.6841 14.5258 17.3873 13.109C19.0967 11.6869 20.2829 10.0793 20.8093 9.29906C21.2071 8.70966 21.2071 7.95685 20.8093 7.36744C20.365 6.70894 19.4507 5.46101 18.1485 4.23273L16.7791 5.55866C17.9127 6.62428 18.73 7.72097 19.1477 8.33325C18.6535 9.05756 17.6002 10.4599 16.1253 11.6868C14.6027 12.9534 12.7226 13.9583 10.6076 13.9583Z" fill="#1D27A4"/>
</svg>
