<svg width="386" height="476" viewBox="0 0 386 476" fill="none" xmlns="http://www.w3.org/2000/svg">
<path d="M189.984 1.30484C179.817 4.00602 169.38 10.8264 164.5 17.8494C162.602 20.6181 162.399 20.7532 157.926 21.1583C147.285 22.1713 136.305 27.9112 128.443 36.3523C120.581 44.861 116.379 55.3955 116.379 66.6053C116.379 69.6441 116.108 72.2102 115.769 72.2102C113.261 72.2102 102.078 74.6412 97.1302 76.3294C84.7949 80.4487 74.4252 86.9315 65.7498 96.0479C54.0922 108.271 49.009 119.751 49.0768 133.661C49.0768 141.427 50.229 145.817 55.7189 157.972C59.1755 165.535 59.5144 170.87 57.4133 181.202C54.2956 196.193 56.9389 202.541 70.833 214.156C74.0863 216.857 79.305 220.571 82.4905 222.394C85.676 224.218 90.2848 226.851 92.7248 228.269C99.4346 232.119 104.518 236.575 107.636 241.235C109.194 243.531 111.092 246.097 111.838 246.907C112.651 247.853 112.922 248.461 112.38 248.461C110.076 248.461 103.976 244.949 97.4691 239.884C86.0149 230.971 80.9317 228.742 64.8687 225.838C59.8532 224.893 53.4823 223.542 50.7712 222.8C33.556 218.073 19.933 206.187 16.4086 192.749C14.2397 184.241 15.7986 177.083 23.5251 161.686C31.726 145.074 37.2159 137.646 45.2135 132.176C47.9924 130.285 48.1279 130.15 46.2302 130.555C42.4347 131.365 36.0637 135.012 31.8616 138.794C23.7284 145.952 11.732 163.712 7.86877 174.111C3.12442 187.077 5.22549 200.583 13.6298 211.522L16.1375 214.764L13.7653 217.397C10.0376 221.517 8.41098 225.231 8.0721 230.7C7.80099 235.022 8.00432 235.968 9.76651 239.817L11.7998 244.139L7.52989 243.869C3.73441 243.598 3.25998 243.734 2.24333 245.152C-0.332171 249.203 -0.806606 270.61 1.43001 282.022C3.12442 290.261 6.98768 300.593 13.4264 314.166C34.3015 357.79 40.8081 379.399 43.1802 412.893C43.9936 423.968 45.0102 428.628 48.3313 435.38C58.5655 456.314 91.7759 470.023 141.456 474.007C185.375 477.451 236.885 476.37 272.603 471.238C292.868 468.335 325.469 460.771 331.84 457.462C334.348 456.247 334.957 453.951 335.567 444.97C336.177 436.731 338.279 421.334 340.447 410.192C346.683 377.846 359.018 343.001 376.233 308.696C383.418 294.448 386.535 280.807 385.925 266.356C385.519 256.294 384.163 251.769 380.707 248.325C378.538 246.165 377.724 245.759 375.217 245.759H372.37L373.793 244.206C376.098 241.775 378.809 235.157 379.148 230.903C379.893 223.137 376.911 214.088 371.896 208.416L369.456 205.647L371.692 201.933C378.47 190.791 376.843 181.337 366.88 173.774C364.372 171.815 359.289 168.709 355.629 166.818C349.258 163.509 335.974 158.647 333.195 158.647C331.365 158.647 331.569 157.769 334.28 154.19C340.922 145.479 339.702 132.851 331.501 125.693C327.638 122.249 322.826 120.426 315.167 119.413L309.135 118.67L311.236 114.551C315.167 106.65 313.472 98.2763 306.627 91.9961C300.459 86.3237 289.547 82.3395 280.33 82.3395H275.111L276.128 79.4358C277.754 74.9789 278.025 66.5378 276.738 61.1354C274.094 50.1282 265.487 39.3236 254.981 33.9213C251.999 32.4357 248.272 30.7474 246.713 30.3423C244.408 29.667 243.731 28.9917 242.714 26.6957C237.156 14.0678 225.905 4.20859 213.57 1.03473C207.741 -0.450893 196.016 -0.315853 189.984 1.30484ZM206.521 7.38245C206.521 7.7201 205.708 8.05774 204.759 8.05774C201.574 8.05774 198.591 10.0161 196.965 13.1899C196.084 14.8106 195.067 16.1612 194.66 16.1612C194.322 16.1612 192.492 15.6885 190.662 15.1483C185.24 13.5276 179.343 15.8911 178.191 20.2805C177.92 21.4285 177.445 22.3063 177.174 22.3063C176.903 22.3063 175.344 22.1037 173.65 21.8336C170.871 21.4285 170.668 21.2934 171.481 20.1454C174.531 15.8911 185.782 9.54337 192.966 8.12528C194.999 7.7201 197.304 7.24741 198.049 7.11234C200.896 6.57212 206.521 6.70716 206.521 7.38245ZM223.601 13.325C227.125 15.756 232.141 21.0233 234.581 24.8049C235.53 26.3581 236.343 27.7762 236.343 27.9788C236.343 28.1813 234.377 28.3164 231.937 28.3164C228.413 28.3164 227.532 28.1138 227.532 27.3035C227.532 25.2776 224.346 22.9141 221.771 22.9141C218.653 22.9141 214.926 21.3609 214.044 19.6727C213.502 18.6598 213.638 18.1195 214.654 17.1741C216.552 15.4859 216.484 11.0965 214.654 9.94855C213.909 9.47584 213.299 8.86808 213.299 8.59797C213.299 7.85517 220.28 11.029 223.601 13.325ZM206.521 18.1871C206.521 21.2259 206.792 21.9687 209.097 24.3322C210.723 26.1555 212.892 27.5061 215.332 28.3164C219.399 29.7345 219.195 29.8696 212.757 29.9371C208.893 30.0046 208.283 30.2072 206.792 31.8954C205.911 32.9084 205.166 34.3265 205.166 35.0693C205.166 36.2173 200.964 40.4716 199.811 40.4716C199.54 40.4716 197.846 38.2431 196.084 35.542C192.627 30.1397 189.306 26.6957 185.307 24.2647C182.461 22.5765 182.393 21.5635 184.968 20.6181C186.324 20.1454 187.612 20.348 190.119 21.4285C192.017 22.2388 194.322 22.9141 195.338 22.9141C198.049 22.9141 200.828 21.1583 201.777 18.8624C202.59 16.904 204.759 14.8106 205.979 14.8106C206.318 14.8106 206.521 16.3638 206.521 18.1871ZM174.328 27.9788C182.935 29.802 190.729 34.5966 194.932 40.7417L196.897 43.5779L193.983 47.8998C189.509 54.5176 188.018 59.8524 188.357 67.9559C188.561 73.3582 188.967 75.3165 190.458 78.5579C191.475 80.7863 192.153 83.0823 191.949 83.7576C191.068 86.5263 182.528 92.1987 175.412 94.7648C160.298 100.167 142.811 97.8036 132.916 88.8898C121.598 78.6929 120.378 60.5952 130.002 46.2791C139.897 31.5578 157.18 24.3997 174.328 27.9788ZM209.368 34.1239C208.487 34.7316 207.606 35.0018 207.335 34.7316C206.792 34.1914 208.487 33.0434 209.91 33.0434C210.52 33.0434 210.317 33.4486 209.368 34.1239ZM239.867 36.0822C249.153 37.973 258.845 43.9156 263.792 50.6685C278.635 70.7921 269.282 93.5493 242.443 102.666C236.614 104.692 235.258 104.894 228.21 104.827C222.652 104.827 219.534 104.489 217.433 103.679C213.367 102.193 213.163 102.733 217.162 104.489C225.499 108 234.716 108.541 244.815 105.975C250.644 104.489 251.389 104.489 260.471 105.232C274.84 106.38 282.702 109.351 285.549 114.821C286.565 116.779 286.565 121.641 285.616 122.587C285.21 122.992 264.538 129.272 257.692 131.095C254.71 131.838 249.83 132.919 246.848 133.391L241.426 134.337L250.576 134.067C257.489 133.864 262.911 133.189 272.603 131.298C291.242 127.719 297.477 126.909 305.475 126.909C317.675 126.909 324.588 129.677 327.705 135.687C333.128 146.154 320.521 157.634 293.953 166.345C281.279 170.532 274.162 171.748 261.42 171.748C246.103 171.815 238.783 169.857 215.4 159.525C197.439 151.557 188.764 148.315 179.004 145.817C165.381 142.305 155.486 140.82 145.861 140.887C137.932 140.887 136.102 141.157 127.901 143.318C118.48 145.817 112.312 147.707 113.125 147.775C113.397 147.843 118.141 147.235 123.631 146.424C138.067 144.399 148.098 144.804 160.569 148.113C177.649 152.57 191.339 158.039 209.571 167.561C220.958 173.436 232.412 178.163 241.087 180.459C248.475 182.417 249.492 182.552 262.098 182.552C277.144 182.552 283.38 181.539 297.409 176.88C309.27 172.963 324.181 165.13 328.112 160.741C328.858 159.998 329.874 159.322 330.416 159.322C332.585 159.322 348.648 169.857 357.053 176.745C363.83 182.282 366.27 186.064 365.525 189.845C364.847 193.56 360.238 200.042 356.036 203.216C346.276 210.577 335.025 210.982 313.608 204.904C309.338 203.689 304.187 202.338 302.222 201.933C298.426 201.123 283.447 201.055 280.059 201.798C278.296 202.203 278.703 202.338 282.837 203.081C290.7 204.364 299.239 207.133 307.508 210.982C325.943 219.491 340.38 221.854 351.63 218.073C353.799 217.33 355.765 216.722 355.968 216.722C356.239 216.722 355.358 218.613 354.138 220.909C350.885 227.189 344.311 233.469 337.533 236.846C328.925 241.1 323.639 242.045 309.202 242.045C291.174 241.978 276.263 239.006 264.47 233.064C257.625 229.688 254.439 227.324 247.187 220.436C231.26 205.31 219.941 200.65 164.839 186.739C118.073 174.922 105.738 171.072 92.4537 164.252C84.3205 160.065 78.0173 155.001 72.7985 148.45C60.7343 133.459 59.7855 121.439 69.7486 110.972C76.1196 104.219 84.9983 99.0867 94.6903 96.5881C98.418 95.5751 99.1635 95.2375 97.5369 95.2375C90.5559 95.1025 77.4751 99.7619 70.223 104.962C68.3931 106.245 66.6986 107.325 66.4953 107.325C65.6142 107.325 75.0351 96.0479 78.7628 92.6714C83.4394 88.4171 91.8437 82.7447 97.808 79.7734C101.4 77.9501 115.091 72.8854 116.311 72.8854C116.514 72.8854 117.328 74.9113 118.005 77.4099C120.378 85.5809 127.562 94.3596 135.017 98.0737C144.099 102.598 157.926 103.476 168.905 100.235C177.581 97.6686 182.393 94.9674 188.154 89.1599L193.169 84.1628L194.593 86.1211C195.338 87.2016 197.643 89.7677 199.608 91.7935C202.997 95.17 203.065 95.2375 200.625 92.3338C197.371 88.4846 193.915 81.9343 192.627 76.9372C189.238 64.2418 194.66 51.2087 206.725 43.0377C217.162 35.9472 228.142 33.6512 239.867 36.0822ZM281.482 89.8352C302.289 100.505 306.153 104.557 306.153 115.429V119.21L299.917 120.021C296.461 120.493 292.801 121.101 291.716 121.304C289.954 121.641 289.886 121.574 290.564 119.886C294.021 110.702 285.21 99.897 271.383 96.318C269.147 95.7102 267.249 95.1025 267.046 94.8999C266.842 94.6973 267.723 93.3467 269.079 91.8611C270.367 90.3754 271.79 88.5522 272.264 87.8093C272.671 86.999 273.349 86.3912 273.823 86.3912C274.298 86.3912 277.754 87.9444 281.482 89.8352ZM68.4608 155.676C78.2884 168.641 93.0637 177.083 122.14 186.199C135.695 190.521 139.152 191.466 171.278 199.772C217.704 211.725 226.651 215.439 241.087 228.54C244.612 231.781 248.678 235.09 250.034 235.833C251.457 236.643 252.609 237.521 252.609 237.723C252.609 239.142 235.123 241.032 222.245 241.032C199.201 241.032 182.054 237.318 164.5 228.54C156.367 224.488 143.15 215.912 135.356 209.631C122.207 199.029 119.903 197.274 116.718 195.383C108.652 190.453 97.7402 187.617 87.3027 187.752H81.4739L87.2349 189.373C97.5369 192.209 105.738 195.923 111.363 200.38C113.261 201.866 118.276 206.525 122.546 210.779C140.1 228.134 157.18 239.277 174.328 244.476C184.697 247.65 184.358 247.38 179.75 249.068C172.362 251.837 168.295 252.647 160.027 252.985C150.538 253.39 143.015 252.512 135.017 250.014C123.834 246.502 120.106 243.869 115.633 236.508C111.567 229.89 105.399 224.015 96.9269 218.815C84.3883 211.117 79.915 207.876 74.6285 202.743C70.6297 198.894 68.7997 196.598 67.9186 194.235C66.6986 191.061 66.6986 190.791 68.1219 183.7C70.6297 171.41 70.0197 163.037 65.9531 154.123C63.9198 149.733 63.9876 149.801 68.4608 155.676ZM366.88 215.844C368.507 223.137 368.507 231.578 366.88 236.575C366.135 238.736 363.695 243.328 361.39 246.705L357.256 252.85L354.138 252.715C351.156 252.512 346.886 250.892 341.193 247.718C336.72 245.219 333.67 246.57 330.416 252.377C328.79 255.348 324.249 258.387 320.182 259.265C316.319 260.008 310.49 258.928 306.966 256.767C304.865 255.484 299.375 250.419 299.375 249.744C299.375 249.541 302.967 249.136 307.373 248.933C316.455 248.461 321.606 247.65 327.841 245.624C341.667 241.235 351.902 232.051 356.036 220.233C357.391 216.317 358.001 215.506 361.187 213.278C363.152 211.86 364.982 210.712 365.254 210.712C365.525 210.644 366.202 213.008 366.88 215.844ZM36.0637 228.81C43.7225 231.983 49.8901 233.402 61.8865 234.55C78.5595 236.238 81.3383 236.981 93.8092 243.193C103.637 248.123 105.263 248.731 109.737 249.068C113.397 249.406 115.294 249.879 116.921 251.027C119.632 252.985 128.307 256.159 133.797 257.239C137.864 258.05 137.932 258.117 137.118 259.535C136.576 260.278 135.966 262.169 135.695 263.587C135.017 267.504 131.561 270.745 128.104 270.745C123.834 270.745 119.835 268.989 114.007 264.667C109.533 261.291 108.11 260.616 105.941 260.616C103.569 260.616 102.823 261.021 99.9768 264.06L96.7236 267.504L93.6059 264.735C89.336 261.021 82.2872 257.577 75.984 256.159C69.2741 254.673 58.7688 255.078 53.0756 257.104L49.009 258.455L46.3657 256.226C42.9769 253.323 38.5715 251.837 33.3527 251.837H29.1505L26.0328 247.245C19.3907 237.656 17.5608 230.633 19.7296 223.272L20.8141 219.491L25.8973 223.07C28.6083 225.096 33.2171 227.662 36.0637 228.81ZM258.574 240.627C262.64 242.653 271.315 245.489 277.212 246.705C279.788 247.245 281.956 247.785 282.092 247.92C282.702 248.528 268.266 262.777 266.436 263.384C263.589 264.33 262.098 263.587 255.32 258.252C247.458 252.04 244.883 250.892 238.783 251.297C233.564 251.634 229.701 253.255 222.584 258.05C217.84 261.223 212.147 263.992 210.181 263.992C209.368 263.992 205.979 262.642 202.658 260.953C192.763 255.956 187.544 255.619 172.294 258.928C168.228 259.805 163.687 260.683 162.331 260.886C159.688 261.359 150.945 260.211 150.064 259.333C149.792 259.063 152.232 258.59 155.486 258.387C164.771 257.78 176.971 253.728 183.681 249.001C185.443 247.718 185.917 247.718 191.475 248.528C199.879 249.811 216.823 249.609 225.16 248.123C233.903 246.637 242.172 244.206 248.543 241.438C251.321 240.154 254.033 239.142 254.507 239.074C254.981 239.006 256.811 239.749 258.574 240.627ZM366.473 250.824C366.473 251.432 362.475 253.188 361.255 253.12C360.577 253.12 361.187 252.58 362.746 251.837C365.592 250.554 366.473 250.284 366.473 250.824ZM23.7962 253.188C24.0673 253.525 23.7284 254.065 22.9829 254.471C21.8985 255.011 21.5596 254.876 20.8818 253.458C20.2041 251.837 20.2041 251.769 21.6274 252.175C22.5085 252.445 23.4573 252.917 23.7962 253.188ZM297.748 261.088C309.677 271.285 326.011 270.948 335.839 260.278L339.024 256.902L343.158 258.928L347.293 260.953L344.988 263.992C339.024 272.096 333.466 283.17 329.535 294.785C322.487 315.787 316.929 340.3 313.472 365.285C312.32 373.659 312.049 379.602 311.914 395.336C311.846 408.504 312.049 414.041 312.456 412.218C312.795 410.732 314.76 403.709 316.793 396.686C321.063 381.898 323.978 369.81 330.145 340.975C336.042 313.288 338.889 299.377 340.99 287.56C343.091 275.945 344.921 268.449 346.751 264.397L348.038 261.494L355.9 261.831C364.982 262.236 368.303 261.359 372.641 257.442L375.217 255.146L376.03 258.05C377.318 262.439 377.114 276.823 375.691 283.576C373.997 291.341 371.692 297.284 364.915 311.262C343.836 354.683 331.704 394.931 327.434 435.853C325.808 451.722 326.485 450.034 321.199 451.587C306.424 456.044 290.293 459.488 272.603 462.122C247.797 465.701 230.514 466.849 198.727 466.781C140.304 466.781 108.11 462.865 83.3039 452.735C69.9519 447.266 60.4632 439.635 56.4644 431.194C53.4145 424.778 52.8723 422.077 51.9912 409.855C49.8223 378.251 42.2314 353.13 22.3051 311.6C13.1553 292.489 10.7154 285.264 9.29207 272.771C8.41098 265.41 9.02097 253.66 10.2409 253.998C10.6476 254.133 11.9353 256.159 13.0875 258.522C14.2397 260.886 15.8664 263.452 16.6797 264.195C18.6452 266.153 22.9151 266.153 25.0162 264.195C25.8973 263.384 27.7272 262.236 29.0828 261.629C34.0304 259.603 37.6904 260.616 42.9769 265.41C46.5013 268.584 48.399 268.719 54.6345 266.288C62.9709 262.979 73.5441 263.519 81.8806 267.774C83.7783 268.719 87.3027 271.285 89.6748 273.514C93.4703 277.025 94.2836 277.498 96.7914 277.498C99.2991 277.498 100.045 277.093 103.095 274.054C105.263 271.893 106.822 270.813 107.297 271.218C114.888 277.025 121.123 279.659 127.562 279.794C131.628 279.794 132.848 279.524 135.492 277.971C139.016 275.945 141.93 272.838 143.286 269.53C143.76 268.382 144.303 267.369 144.37 267.369C144.506 267.369 146.268 267.909 148.301 268.517C154.266 270.407 164.5 270.137 174.531 267.774C181.376 266.221 183.884 265.883 188.425 266.221C193.373 266.491 194.66 266.896 199.947 269.665C204.895 272.231 206.521 272.771 209.571 272.771C214.316 272.771 219.399 270.88 225.973 266.558C232.683 262.169 237.495 259.94 240.138 259.94C242.375 259.94 244.883 261.494 252.338 267.504C261.759 275.134 270.163 274.459 278.771 265.275C280.94 262.912 284.532 259.198 286.633 256.969L290.564 252.985L292.529 255.686C293.546 257.104 295.918 259.603 297.748 261.088Z" fill="#535DD4"/>
<path d="M199.201 25.4127C196.423 26.7632 195.27 28.7216 196.423 30.0722C197.507 31.3552 199.337 31.2877 202.455 29.667C205.03 28.3839 206.318 26.2905 205.505 24.94C204.895 23.927 201.709 24.1296 199.201 25.4127Z" fill="#535DD4"/>
<path d="M146.539 34.1913C140.914 37.095 138.406 41.1468 139.016 46.3465L139.423 49.9931L136.915 51.006C130.476 53.5721 128.578 55.733 128.578 60.5276C128.578 65.7273 132.916 67.6856 138.474 65.052C141.863 63.4313 141.863 62.8236 138.406 63.6339C134.949 64.4442 131.967 63.4988 131.967 61.6756C131.967 60.1899 135.695 56.6784 137.322 56.6784C138.067 56.6784 139.965 56.2057 141.456 55.598C145.048 54.1799 146.471 51.4787 145.929 47.3594C145.59 45.0635 145.794 43.983 146.607 43.1051C147.691 41.9571 147.759 41.9571 149.183 44.0505C151.961 48.2373 157.79 49.7229 162.941 47.562C164.297 47.0218 165.517 46.6842 165.652 46.8192C165.855 46.9543 164.297 48.3724 162.196 49.858C157.926 53.0319 157.18 54.8551 158.332 58.7043C159.417 62.3508 160.298 62.621 159.959 59.177C159.823 57.6238 159.959 56.0031 160.23 55.5304C160.569 55.1253 162.738 53.7747 165.178 52.4916C170.397 49.7905 172.633 46.9543 172.633 42.835C172.633 39.7287 171.142 37.7703 168.702 37.7703C167.889 37.7703 165.449 38.7157 163.28 39.8637C157.926 42.6324 155.689 42.1597 155.689 38.3781C155.689 33.5835 151.419 31.6252 146.539 34.1913Z" fill="#535DD4"/>
<path d="M148.098 52.6268C144.235 55.8006 144.913 59.6498 149.115 58.0966C151.487 57.1512 154.401 53.9098 154.198 52.3567C153.859 50.0607 151.013 50.1957 148.098 52.6268Z" fill="#535DD4"/>
<path d="M228.413 37.0951C227.6 37.4327 226.38 38.5132 225.77 39.4586C224.685 41.0793 224.685 41.4169 225.702 43.4428C226.583 45.4011 226.651 45.8738 225.838 47.0218C224.279 49.1827 221.161 50.1281 216.959 49.723C210.927 49.1152 208.622 50.871 209.571 55.3279C210.452 59.3796 215.671 62.0808 222.72 62.0808C226.041 62.0808 226.583 62.2833 229.023 64.7819C231.666 67.348 231.734 67.4155 231.26 65.5923C230.243 61.2704 228.142 59.7848 220.754 57.7589C216.959 56.746 213.977 55.0578 214.722 54.3825C214.926 54.1799 217.366 53.7072 220.144 53.302C225.838 52.6267 230.65 50.8034 232.547 48.71C233.564 47.5621 233.7 46.6842 233.361 44.5233C233.022 42.1597 233.09 41.8221 234.242 41.8221C236.072 41.8221 238.105 44.6583 238.647 47.8322C238.918 49.5879 239.664 51.006 240.952 51.9514C242.578 53.302 243.256 53.3695 247.187 52.9644C255.524 52.019 257.354 52.6267 257.354 56.0707C257.354 58.2991 255.185 60.0549 251.389 60.7977C248.949 61.2029 248.949 61.2704 252.27 61.3379C260.336 61.473 263.928 55.2603 258.641 50.1957C256.744 48.3724 256.201 48.2373 251.05 48.1698H245.56L244.747 44.5233C243.798 40.404 241.765 38.2431 237.698 37.0951C234.852 36.2847 230.446 36.2847 228.413 37.0951Z" fill="#535DD4"/>
<path d="M233.361 52.7618C230.989 54.0449 232.954 56.8811 237.088 58.0291C239.867 58.8394 241.765 58.2992 241.765 56.746C241.765 54.1124 235.868 51.3437 233.361 52.7618Z" fill="#535DD4"/>
<path d="M111.296 86.3237C105.602 88.9574 102.146 94.4272 102.146 100.775C102.146 106.042 103.84 110.229 107.703 114.416C114.074 121.371 124.715 124.95 134.95 123.465C142.608 122.384 142.947 122.047 137.593 119.818C120.174 112.592 111.634 105.367 111.634 97.8712C111.634 94.6973 113.939 90.3079 117.124 87.4717L119.768 85.0407H116.921C115.294 85.0407 112.787 85.6485 111.296 86.3237Z" fill="#535DD4"/>
<path d="M188.222 93.9545C185.985 97.8712 185.917 105.232 188.154 110.904C192.085 120.899 202.522 128.597 214.383 130.218C218.518 130.825 224.821 130.488 224.821 129.677C224.821 129.407 223.398 128.529 221.635 127.651C217.027 125.423 206.047 118.13 202.251 114.753C198.795 111.715 194.186 105.434 192.559 101.518C192.017 100.167 191.204 97.2634 190.729 95.035L189.916 90.9832L188.222 93.9545Z" fill="#535DD4"/>
<path d="M41.4181 273.109C41.6214 274.189 42.2314 278.781 42.8414 283.238C45.2135 301.201 47.9924 310.317 60.1243 340.637C64.1909 350.834 69.0708 363.665 70.9686 369.135C77.2718 387.435 85.8794 418.836 85.8794 423.766C85.8794 424.778 86.0149 425.454 86.1505 425.319C86.286 425.184 86.7605 419.444 87.1671 412.556C88.116 398.037 87.506 388.651 84.8627 376.158C80.5928 356.034 74.764 341.245 56.1933 303.834C50.4323 292.152 44.6713 279.997 43.3836 276.823C42.1636 273.649 41.2825 271.961 41.4181 273.109Z" fill="#535DD4"/>
<path d="M289.683 285.399C286.836 293.165 283.787 302.011 282.838 305.185C271.18 344.824 263.996 401.481 266.165 436.258C266.639 443.484 267.181 452.06 267.452 455.437L267.927 461.514L268.469 457.8C268.808 455.774 270.096 448.616 271.316 441.931C272.603 435.245 275.315 417.891 277.416 403.439C279.449 388.921 283.38 361.301 286.159 341.988C288.938 322.675 291.988 299.377 292.936 290.193C293.885 281.009 294.834 273.041 295.037 272.501C295.241 271.893 295.309 271.42 295.173 271.42C295.037 271.42 292.53 277.701 289.683 285.399Z" fill="#535DD4"/>
<path d="M241.901 287.627C237.495 305.32 236.207 312.613 234.377 329.158C231.26 357.655 230.785 376.495 232.751 398.712C233.428 406.14 234.038 411.475 234.174 410.53C234.31 409.584 235.733 403.034 237.36 396.011C240.748 381.492 241.968 374.672 243.459 362.584C246.78 334.762 247.865 306.468 246.374 285.601L245.493 273.109L241.901 287.627Z" fill="#535DD4"/>
<path d="M141.795 282.9C141.93 284.588 142.269 292.287 142.473 300.12C142.879 314.706 143.76 327.199 147.895 378.116C150.403 408.774 150.606 411.138 153.317 431.329C154.266 438.082 155.011 444.024 155.079 444.497C155.147 445.375 156.909 434.435 158.875 420.997C160.501 409.787 160.501 375.28 158.875 358.87C155.825 328.955 152.504 312.816 144.167 287.965C142.134 281.887 141.524 280.604 141.795 282.9Z" fill="#535DD4"/>
<path d="M191.001 283.238C190.933 285.129 190.323 292.422 189.509 299.445C187.002 322.607 187.07 386.76 189.577 415.595C190.255 423.09 192.695 443.281 193.441 447.671C193.847 449.899 193.915 449.832 194.389 446.32C194.593 444.294 195.609 437.271 196.558 430.789C199.202 412.961 199.947 401.143 199.947 374.402C199.947 339.219 198.524 320.514 193.915 294.718C191.204 279.186 191.068 278.714 191.001 283.238Z" fill="#535DD4"/>
<path d="M94.2836 282.293C94.487 283.305 95.1647 290.599 95.7069 298.499C96.8591 315.044 97.2658 318.556 103.23 366.501C105.67 385.949 108.856 408.572 110.347 416.81C111.77 425.049 112.99 432.814 113.058 434.165C113.261 443.281 116.447 414.582 116.853 400.063C117.666 371.228 112.583 333.412 104.586 308.831C101.942 300.66 93.6736 279.389 94.2836 282.293Z" fill="#535DD4"/>
</svg>
