<svg width="40" height="40" viewBox="0 0 40 40" fill="none" xmlns="http://www.w3.org/2000/svg">
<path d="M35.3195 27.2802C40.1934 20.8426 40.0075 10.9385 39.9966 10.5055C39.9767 9.70386 39.4372 9.05471 38.7573 9.01394C38.577 9.00327 36.0475 8.87068 32.8981 9.60531C32.2783 5.95369 31.2265 3.34025 31.1758 3.21576C30.8871 2.50588 30.1898 2.16745 29.5601 2.43098C29.45 2.47717 27.1544 3.45131 24.5366 5.50338C22.8072 2.46576 21.0166 0.545728 20.8723 0.393355C20.376 -0.131118 19.6239 -0.131118 19.1276 0.393355C18.9833 0.545912 17.1926 2.46576 15.4633 5.50338C12.8456 3.45131 10.55 2.47698 10.4399 2.43089C9.81015 2.16718 9.11312 2.50588 8.82421 3.21566C8.77351 3.34016 7.72179 5.9536 7.10187 9.60522C3.95249 8.87041 1.42304 9.00318 1.2428 9.01394C0.562648 9.05452 0.0232729 9.70376 0.003351 10.5055C-0.00743025 10.9385 -0.193368 20.8427 4.68046 27.2802C2.68452 28.211 0.406085 29.7869 0.406085 32.3077C0.406085 34.7692 2.52694 36.7309 6.70984 38.1384C10.2774 39.3389 14.9973 40 20 40C25.0027 40 29.7226 39.3389 33.2901 38.1384C37.473 36.7309 39.5939 34.7692 39.5939 32.3077C39.5939 29.7881 37.3183 28.2123 35.3195 27.2802ZM37.3483 12.0957C37.1962 15.0373 36.4557 21.6298 32.9313 25.7806C30.1032 29.1114 25.934 30.2353 23.1152 30.6056C26.1671 26.1812 28.2998 20.7495 27.7458 15.0797C31.1093 12.6808 35.2848 12.1854 37.3483 12.0957ZM29.2906 5.89793C29.6216 6.94218 30.0574 8.51772 30.3622 10.366C29.3015 10.761 28.2239 11.2683 27.1833 11.9192C26.8391 10.5794 26.3829 9.31676 25.872 8.15381C27.1897 7.10882 28.4348 6.36039 29.2906 5.89793ZM20.0016 3.71888C22.7816 7.23212 25.225 12.0779 25.225 16.923C25.225 22.8017 21.6841 27.9902 19.9983 30.1271C18.3118 27.9958 14.7749 22.8222 14.7749 16.923C14.775 12.0961 17.2007 7.26929 20.0016 3.71888ZM10.7094 5.89793C11.5655 6.36057 12.8106 7.10891 14.128 8.15372C13.6172 9.31667 13.1611 10.5794 12.8168 11.9191C11.7762 11.2682 10.6986 10.7609 9.63796 10.3659C9.94273 8.51744 10.3787 6.94182 10.7094 5.89793ZM2.65171 12.0933C4.71241 12.1798 8.88093 12.671 12.2543 15.0794C11.7005 20.7459 13.8304 26.1776 16.8848 30.6056C14.0661 30.2353 9.89687 29.1116 7.06882 25.7806C3.54335 21.6284 2.80335 15.0328 2.65171 12.0933ZM32.5725 35.1799C29.2319 36.304 24.7669 36.9232 20.0001 36.9232C15.2333 36.9232 10.7683 36.3041 7.42757 35.1799C3.82866 33.9688 3.01866 32.668 3.01866 32.3078C3.01866 31.9643 3.74937 30.7787 6.88726 29.6258C10.4776 32.694 15.7914 34.0585 20 33.8479C24.1429 34.0553 29.4801 32.7302 33.1127 29.6258C36.2506 30.7787 36.9813 31.9643 36.9813 32.3078C36.9814 32.668 36.1715 33.9688 32.5725 35.1799Z" fill="white"/>
</svg>
