<svg width="21" height="20" viewBox="0 0 21 20" fill="none" xmlns="http://www.w3.org/2000/svg">
<path d="M20.7334 17.6851L16.8556 13.7962C16.7167 13.6573 16.5283 13.5793 16.3316 13.5793C16.1349 13.5793 15.946 13.6573 15.8063 13.7962L15.6058 13.997L14.2659 12.6533L14.4425 12.4763C15.6968 10.9688 16.3234 9.03759 16.1923 7.08398C16.0612 5.13038 15.1823 3.30452 13.7383 1.9857C12.2943 0.666875 10.3962 -0.0435267 8.43825 0.0020663C6.48029 0.0476593 4.613 0.845742 3.2243 2.23053C1.8356 3.61531 1.03224 5.48034 0.98109 7.43819C0.929944 9.39604 1.63495 11.2962 2.94966 12.7439C4.26436 14.1917 6.0877 15.0757 8.0409 15.2124C9.9941 15.3491 11.927 14.7279 13.4381 13.4779L13.6156 13.3018L14.9555 14.6455L14.7541 14.8454C14.6145 14.9847 14.5358 15.1736 14.5352 15.3705C14.5347 15.5675 14.6123 15.7563 14.7511 15.8956L18.629 19.7827C18.6976 19.8516 18.7791 19.9062 18.869 19.9435C18.9588 19.9807 19.0552 19.9999 19.1525 19.9999C19.2499 19.9999 19.3463 19.9807 19.4364 19.9435C19.5264 19.9062 19.6083 19.8516 19.6773 19.7827L20.7305 18.7344C20.8695 18.595 20.9479 18.4063 20.9485 18.2097C20.949 18.0131 20.8717 17.8245 20.7334 17.6851ZM8.57373 14.3135C7.69515 14.3157 6.82535 14.1437 6.01471 13.8072C5.20406 13.4708 4.46868 12.9766 3.85117 12.3534C2.93539 11.4364 2.30665 10.2723 2.04146 9.00259C1.77626 7.73292 1.88605 6.41249 2.35746 5.20199C2.82887 3.99149 3.64158 2.94311 4.69668 2.18444C5.75179 1.42576 7.0038 0.9895 8.30035 0.928741C9.5969 0.867982 10.8821 1.18535 11.9995 1.84221C13.117 2.49908 14.0184 3.46713 14.5943 4.62855C15.1701 5.78997 15.3955 7.09469 15.243 8.38394C15.0905 9.67318 14.5666 10.8914 13.7352 11.8902L12.7915 12.8276C11.597 13.7923 10.107 14.317 8.57373 14.3135ZM19.1558 19.0104L15.5249 15.371L16.3288 14.5703L19.9597 18.2097L19.1558 19.0104Z" fill="white"/>
</svg>
