<svg width="22" height="16" viewBox="0 0 22 16" fill="none" xmlns="http://www.w3.org/2000/svg">
<path fill-rule="evenodd" clip-rule="evenodd" d="M5.09001 11.6868C3.61522 10.4599 2.56184 9.05756 2.06766 8.33325C2.56184 7.60894 3.61522 6.20661 5.09001 4.97976C6.61264 3.71311 8.49272 2.70825 10.6076 2.70825C12.7226 2.70825 14.6027 3.71311 16.1253 4.97976C17.6002 6.20661 18.6535 7.60894 19.1477 8.33325C18.6535 9.05756 17.6002 10.4599 16.1253 11.6868C14.6027 12.9534 12.7226 13.9583 10.6076 13.9583C8.49272 13.9583 6.61264 12.9534 5.09001 11.6868ZM10.6076 0.833252C7.84573 0.833252 5.53125 2.14071 3.82804 3.55758C2.11865 4.97959 0.932431 6.58725 0.405992 7.36744C0.00822397 7.95685 0.00822397 8.70966 0.405992 9.29906C0.932431 10.0793 2.11865 11.6869 3.82804 13.109C5.53125 14.5258 7.84573 15.8333 10.6076 15.8333C13.3696 15.8333 15.6841 14.5258 17.3873 13.109C19.0967 11.6869 20.2829 10.0793 20.8093 9.29906C21.2071 8.70966 21.2071 7.95685 20.8093 7.36744C20.2829 6.58725 19.0967 4.97959 17.3873 3.55758C15.6841 2.14071 13.3696 0.833252 10.6076 0.833252ZM8.67113 8.33325C8.67113 7.29769 9.5382 6.45825 10.6076 6.45825C11.6772 6.45825 12.5441 7.29769 12.5441 8.33325C12.5441 9.36881 11.6772 10.2083 10.6076 10.2083C9.5382 10.2083 8.67113 9.36881 8.67113 8.33325ZM10.6076 4.58325C8.46867 4.58325 6.73466 6.26218 6.73466 8.33325C6.73466 10.4043 8.46867 12.0833 10.6076 12.0833C12.7467 12.0833 14.4806 10.4043 14.4806 8.33325C14.4806 6.26218 12.7467 4.58325 10.6076 4.58325Z" fill="#1D27A4"/>
</svg>
