<svg width="22" height="22" viewBox="0 0 22 22" fill="none" xmlns="http://www.w3.org/2000/svg">
<path d="M1 4.33333H21M16 4.33333L15.6617 3.43119C15.3339 2.55694 15.1699 2.11982 14.8659 1.79664C14.5974 1.51126 14.2526 1.29036 13.8631 1.1542C13.422 1 12.9037 1 11.867 1H10.133C9.09625 1 8.578 1 8.13689 1.1542C7.7474 1.29036 7.4026 1.51126 7.13411 1.79664C6.83006 2.11982 6.66615 2.55694 6.3383 3.43119L6 4.33333M18.5 4.33333V15.6667C18.5 17.5336 18.5 18.4669 18.0913 19.18C17.7318 19.8072 17.1581 20.3171 16.4525 20.6367C15.6502 21 14.6002 21 12.5 21H9.5C7.3998 21 6.3497 21 5.54754 20.6367C4.84193 20.3171 4.26825 19.8072 3.90873 19.18C3.5 18.4669 3.5 17.5336 3.5 15.6667V4.33333M13.5 8.77778V16.5556M8.5 8.77778V16.5556" stroke-width="2" stroke-linecap="round" stroke-linejoin="round"/>
</svg>
